<svg width="33" height="40" viewBox="0 0 33 40" fill="none" xmlns="http://www.w3.org/2000/svg">
<g clip-path="url(#clip0_12_177)">
<path d="M30.8 8.29765L27.9941 38.8262L15.3812 42.2222L2.80302 38.831L3.05176e-05 8.29765H30.8Z" fill="#264DE4"/>
<path d="M25.5918 36.8822L27.9897 10.7942H15.4V39.6264L25.5918 36.8822Z" fill="#2965F1"/>
<path d="M6.42578 22.1186L6.77137 25.8633H15.4V22.1186H6.42578Z" fill="#EBEBEB"/>
<path d="M15.4 14.539H15.3867H5.73138L6.08189 18.2839H15.4V14.539Z" fill="#EBEBEB"/>
<path d="M15.4 35.7404V31.8442L15.3831 31.8486L11.0888 30.7225L10.8143 27.7358H8.72762H6.94365L7.48385 33.6157L15.3822 35.7452L15.4 35.7404Z" fill="#EBEBEB"/>
<path d="M7.24858 0H11.9187V1.8967H9.20153V3.7934H11.9187V5.6901H7.24858V0Z" fill="black"/>
<path d="M12.8527 0H17.5228V1.64931H14.8056V1.97917H17.5228V5.77257H12.8527V4.0408H15.5698V3.71094H12.8527V0Z" fill="black"/>
<path d="M18.4568 0H23.1269V1.64931H20.4097V1.97917H23.1269V5.77257H18.4568V4.0408H21.1739V3.71094H18.4568V0Z" fill="black"/>
<path d="M20.1347 25.8633L19.6871 30.72L15.3867 31.8473V35.7433L23.2914 33.6156L23.3493 32.983L24.2554 23.1242L24.3495 22.1186L25.0456 14.539H15.3867V18.2839H20.8199L20.4691 22.1186H15.3867V25.8633H20.1347Z" fill="white"/>
</g>
<defs>
<clipPath id="clip0_12_177">
<rect width="33" height="40" fill="white"/>
</clipPath>
</defs>
</svg>
