<svg width="38" height="38" viewBox="0 0 38 38" fill="none" xmlns="http://www.w3.org/2000/svg">
<path d="M4.75 33.25V4.75H33.25V33.25H4.75Z" fill="#F7DF1E"/>
<path d="M23.3843 26.083C23.9321 26.9729 24.5274 27.8255 25.7885 27.8255C26.8478 27.8255 27.4035 27.299 27.4035 26.5707C27.4035 25.6991 26.8288 25.3895 25.6635 24.8821L25.0246 24.6097C23.1808 23.8276 21.9545 22.8475 21.9545 20.7773C21.9545 18.8694 23.4151 17.4174 25.6975 17.4174C27.3228 17.4174 28.4905 17.9803 29.3328 19.4544L27.3426 20.7266C26.9048 19.9444 26.4314 19.6365 25.6975 19.6365C24.9486 19.6365 24.4744 20.1091 24.4744 20.7266C24.4744 21.4898 24.9494 21.7985 26.0458 22.2712L26.6847 22.5435C28.8578 23.4689 30.0833 24.4142 30.0833 26.539C30.0833 28.8285 28.2752 30.0833 25.8479 30.0833C23.4737 30.0833 22.1255 28.8919 21.375 27.417L23.3843 26.083ZM14.212 26.1479C14.6126 26.8652 15.2214 27.417 16.097 27.417C16.9345 27.417 17.4167 27.0861 17.4167 25.7996V17.4167H20.0553V26.2049C20.0553 28.8705 18.5092 30.0833 16.2513 30.0833C14.2112 30.0833 12.7387 28.7011 12.1386 27.417L14.212 26.1479Z" fill="#000001"/>
</svg>
