<svg width="50" height="47" viewBox="0 0 50 47" fill="none" xmlns="http://www.w3.org/2000/svg">
<path d="M12.8096 8.6852C10.3131 12.3394 10.624 17.0932 12.526 20.9714L12.6659 21.2479L12.7604 21.4227C12.7779 21.4567 12.7982 21.4903 12.8162 21.5234C12.8493 21.5848 12.8823 21.6439 12.9107 21.7043L13.0926 22.0224L13.1966 22.1972L13.4078 22.5337L13.5023 22.6754C13.5968 22.8266 13.7036 22.9769 13.8085 23.1253C13.8109 23.1291 13.8142 23.1333 13.817 23.1371C13.8336 23.1607 13.852 23.1844 13.8643 23.208C13.955 23.3356 14.0533 23.4613 14.1478 23.586L14.2527 23.7221L14.5103 24.0444L14.6085 24.1644C14.7257 24.3059 14.8454 24.4451 14.9677 24.5822L14.9752 24.5897C14.98 24.5959 14.9847 24.5992 14.9894 24.6053C15.1079 24.7389 15.2295 24.8697 15.3542 24.9975L15.4714 25.1176L15.763 25.4086L15.8821 25.5239C16.0131 25.6495 16.1462 25.7728 16.2814 25.8939L16.357 25.9601L16.7194 26.272L16.8697 26.3939L17.1721 26.6302L17.3337 26.7554L17.7959 27.0933C17.8077 27.1013 17.8181 27.1098 17.8299 27.1178C17.9386 27.1935 18.0487 27.2667 18.1593 27.3399L18.302 27.4368L18.818 27.7581L18.9607 27.8399L19.3482 28.061C19.4191 28.0998 19.4914 28.1367 19.5623 28.1735L19.8392 28.3153L19.903 28.3465L20.0164 28.4022L20.4558 28.6092L20.5489 28.6565C20.7184 28.7318 20.8892 28.8041 21.0612 28.8734L21.1859 28.9234L21.6693 29.1059L21.7298 29.1276C21.9083 29.1906 22.0879 29.2504 22.2685 29.3072L22.3985 29.3469C22.5875 29.4036 22.7647 29.4711 22.9547 29.5075C35.0273 31.7549 38.535 22.1235 38.535 22.1235C35.5896 26.0315 30.3618 27.0616 25.4086 25.9147C25.221 25.8675 25.0391 25.8122 24.8557 25.7569L24.7177 25.7097C24.5391 25.6539 24.3614 25.5948 24.1857 25.5334L24.1124 25.5065C23.9551 25.4498 23.7987 25.3907 23.6432 25.3293L23.5109 25.2763C23.3407 25.2079 23.1718 25.1364 23.0043 25.0618L22.9032 25.0164L22.476 24.8132L22.3531 24.7527C22.2421 24.697 22.1319 24.6398 22.0223 24.5812L21.8017 24.4631C21.6683 24.39 21.5363 24.3145 21.4057 24.2367L21.2719 24.1611C21.098 24.0572 20.926 23.9485 20.7559 23.8398C20.7087 23.8091 20.6633 23.7765 20.6165 23.7453L20.2493 23.4967L20.1312 23.4117L19.7839 23.1565L19.6298 23.0383L19.3165 22.7888L19.1767 22.6754L18.7868 22.3446C18.7736 22.3328 18.7585 22.321 18.7396 22.3083C18.6006 22.184 18.4641 22.0564 18.3294 21.9283L18.2141 21.8149L17.9192 21.521L17.8039 21.4029C17.6811 21.2752 17.5606 21.1454 17.4424 21.0135C17.4367 21.0069 17.4301 21.0007 17.4245 20.9946C17.2996 20.8551 17.1773 20.7133 17.0578 20.5693L16.9618 20.453L16.6972 20.1208L16.6003 19.998L16.2955 19.5845C13.5453 15.764 12.5624 10.4951 14.755 6.16747M20.5593 5.60609C18.7542 8.25235 18.852 11.7936 20.2602 14.592C20.4958 15.0619 20.7626 15.5155 21.0588 15.9497C21.3291 16.3442 21.6292 16.8144 21.9883 17.131C22.1183 17.2728 22.2544 17.4146 22.3933 17.5592C22.4283 17.5956 22.4642 17.63 22.5001 17.6664C22.6349 17.8003 22.7729 17.9309 22.914 18.0582C22.9197 18.0629 22.9249 18.0686 22.931 18.0733C23.0899 18.2145 23.2524 18.3516 23.4182 18.4844L23.5279 18.5714C23.6931 18.7012 23.8617 18.8266 24.0335 18.9475C24.0381 18.9513 24.0428 18.9549 24.0477 18.9584C24.1233 19.0118 24.2013 19.0623 24.2783 19.1134C24.3151 19.1379 24.3501 19.1639 24.387 19.1871C24.5102 19.2677 24.6351 19.3457 24.7617 19.421L24.8146 19.4522L25.1454 19.6412C25.1841 19.6634 25.2238 19.6828 25.2635 19.7036L25.4998 19.8255C25.5116 19.8316 25.5234 19.8364 25.5348 19.842C25.694 19.9224 25.8542 19.998 26.0182 20.0712C26.0532 20.0868 26.0891 20.101 26.125 20.1161C26.2559 20.1728 26.3882 20.2276 26.5219 20.2801L26.692 20.3434C26.8127 20.3883 26.934 20.4313 27.0559 20.4724L27.2204 20.5258C27.3938 20.5811 27.5653 20.6501 27.7463 20.6808C37.0673 22.2534 39.2197 14.9441 39.2197 14.9441C37.2799 17.7888 33.5237 19.1469 29.5146 18.0875C29.3372 18.0404 29.1612 17.9884 28.9867 17.9315C28.9333 17.915 28.8809 17.8975 28.828 17.8843C28.7042 17.8434 28.5811 17.8002 28.4589 17.7548L28.2921 17.6915C28.1584 17.6442 28.026 17.5852 27.8952 17.5284C27.8592 17.5129 27.8233 17.4987 27.7879 17.4821C27.6234 17.4102 27.4611 17.3334 27.3012 17.252C27.2189 17.2109 27.1381 17.1679 27.0573 17.1254L26.9165 17.0516C26.8125 16.9945 26.7097 16.9354 26.6079 16.8744L26.5342 16.8272C26.4084 16.752 26.2839 16.6745 26.1609 16.5947C26.1231 16.5701 26.0862 16.5474 26.0484 16.5181L25.8065 16.3551C25.6356 16.2341 25.4676 16.109 25.3028 15.9799L25.1893 15.8892C23.4348 14.4782 22.0436 12.5502 21.3825 10.3637C20.6893 8.09547 20.8391 5.5508 22.0441 3.4853M27.0758 3.30573C26.0116 4.90105 25.9071 6.88197 26.6505 8.64362C27.4292 10.5135 29.025 11.9807 30.8873 12.6759C30.9639 12.7052 31.0409 12.7312 31.1236 12.7576L31.2257 12.7907C31.3353 12.8257 31.4445 12.8663 31.5574 12.888C36.7044 13.9007 38.1003 10.1983 38.4717 9.65345C37.2487 11.4468 35.1936 11.8773 32.6721 11.254C32.4737 11.2044 32.2539 11.1311 32.0578 11.0621C31.8111 10.9728 31.5693 10.8705 31.3334 10.7554C30.8847 10.5354 30.4591 10.2708 30.0632 9.96581C27.8021 8.22211 26.4 4.89632 27.8725 2.18768" fill="#0868AC"/>
<path d="M25.9558 34.3398H24.3586C24.2698 34.3398 24.1819 34.4106 24.163 34.4976L23.0289 39.7462C23.01 39.8327 22.9221 39.9035 22.8337 39.9035H21.7029C20.5839 39.9035 20.7134 39.13 20.9468 38.0701L20.9539 38.0379L21.0895 37.3149L21.1481 37.0172L21.6642 34.4976C21.6821 34.4106 21.624 34.3393 21.5352 34.3393H19.8954C19.8502 34.3408 19.8067 34.3571 19.7716 34.3856C19.7365 34.4141 19.7116 34.4532 19.7007 34.4971L18.9621 38.0006C18.5557 39.8549 18.6635 41.6231 20.8712 41.6784L20.935 41.6798H24.3997C24.4886 41.6798 24.576 41.609 24.5949 41.522L26.0891 34.4971C26.108 34.4102 26.0499 34.3393 25.9615 34.3393L25.9558 34.3398ZM32.3291 39.922C32.4179 39.922 32.4708 39.9928 32.4581 40.0798L32.3031 40.8382" fill="#131B28"/>
<path d="M28.0558 38.9457C28.0544 38.8625 28.1489 38.7198 28.2377 38.7198L28.0383 38.7165C27.9438 39.621 28.0558 38.9457 28.0558 38.9457ZM32.3291 39.922C32.4179 39.922 32.4708 39.9929 32.4581 40.0798L32.2776 40.9616" fill="#131B28"/>
<path d="M29.3572 41.7706H29.2826H29.3667H29.3572ZM5.87258 38.9646L6.12067 37.8645L5.83714 39.1215L5.80406 39.2793L5.87306 38.9636L5.87258 38.9646ZM8.84301 34.3218H7.08845C7.04311 34.3236 6.99953 34.3398 6.96408 34.3681C6.92862 34.3964 6.90316 34.4354 6.89139 34.4792L6.55872 35.9441C6.55313 35.963 6.5522 35.9831 6.556 36.0025C6.55981 36.0219 6.56823 36.0401 6.58057 36.0555C6.59291 36.0709 6.60879 36.0832 6.62687 36.0912C6.64495 36.0992 6.66469 36.1027 6.68442 36.1014H8.45269C8.54153 36.1014 8.62942 36.0305 8.64832 35.9441L8.96966 34.4759C8.98856 34.3894 8.93185 34.3185 8.84207 34.3185L8.84301 34.3218ZM3.3643 44.6531L4.81124 44.6645C4.38406 44.6645 3.67855 44.6564 3.36383 44.6526L3.3643 44.6531Z" fill="#131B28"/>
<path d="M8.33455 36.6066H6.5658C6.52047 36.6084 6.47689 36.6246 6.44144 36.6529C6.40598 36.6812 6.38051 36.7201 6.36875 36.7639L5.87258 38.9641L5.80359 39.2798L5.33104 41.5258C5.30763 41.6306 5.27924 41.7342 5.24598 41.8363C5.24598 41.8363 4.9152 42.8192 4.36043 42.8083L3.80991 42.7979C3.76475 42.7992 3.72118 42.8148 3.68549 42.8425C3.64981 42.8702 3.62387 42.9085 3.61144 42.9519L3.24522 44.4939C3.23943 44.5127 3.23827 44.5327 3.24182 44.5521C3.24538 44.5715 3.25355 44.5897 3.26564 44.6053C3.27774 44.6209 3.2934 44.6333 3.31131 44.6415C3.32922 44.6498 3.34886 44.6536 3.36855 44.6526L4.81596 44.6645C6.20336 44.6645 6.93439 43.8956 7.40363 41.6841L8.46686 36.7696C8.48576 36.6831 8.42811 36.6123 8.33927 36.6123L8.33455 36.6066ZM33.4561 41.6808C33.3673 41.6808 33.3143 41.6099 33.3285 41.523L34.6587 35.292" fill="#131B28"/>
<path d="M33.3479 41.6019C33.337 41.5584 33.3431 41.4521 33.362 41.3656L33.9934 38.4075L33.328 41.523C33.3091 41.6099 33.3668 41.6808 33.4556 41.6808H33.6172C33.5284 41.6808 33.3583 41.6454 33.3479 41.6019ZM35.2003 41.6454C35.1521 41.6643 35.0396 41.6808 34.9507 41.6808H35.1124C35.1575 41.679 35.2008 41.6626 35.2357 41.6341C35.2707 41.6055 35.2954 41.5663 35.3061 41.5225L35.3382 41.3647C35.3208 41.4516 35.2437 41.626 35.1965 41.6454H35.2003ZM40.8226 35.7092L40.8959 36.0117C40.9162 36.0981 40.8599 36.1685 40.7716 36.169" fill="#131B28"/>
<path d="M35.8113 39.0189L35.8765 38.7052L36.1302 37.5167L35.8429 38.8625L35.8113 39.0189ZM34.6805 35.1894L34.6252 35.4493L33.9939 38.4075L34.6592 35.292L34.6805 35.1899V35.1894Z" fill="#131B28"/>
<path d="M40.8963 36.0117L40.8231 35.7092L40.7144 35.2367C40.5707 34.6791 40.1492 34.3563 39.2334 34.3563L35.0183 34.3535C34.9731 34.355 34.9297 34.3713 34.8945 34.3998C34.8594 34.4283 34.8345 34.4674 34.8236 34.5113L34.7584 34.8199L34.6639 35.2863L33.3672 41.3599C33.3483 41.4469 33.3422 41.549 33.3531 41.5962C33.3639 41.6435 33.5341 41.6751 33.6224 41.6751H34.955C35.0438 41.6751 35.1558 41.6591 35.2045 41.6397C35.2532 41.6203 35.3245 41.4507 35.3463 41.359L35.8519 38.8573L36.393 36.3226C36.4119 36.2361 36.4993 36.1657 36.5877 36.1652L40.7806 36.1633C40.8689 36.1633 40.9252 36.0925 40.9048 36.006L40.8963 36.0117ZM46.2942 33.2742L45.9715 33.2756H44.6295C44.5803 33.2785 44.5324 33.2919 44.4889 33.3149C44.4453 33.3379 44.4072 33.3699 44.3771 33.4089L41.4095 37.7563C41.3594 37.8295 41.3023 37.8187 41.2819 37.7327L41.0636 36.7748C41.0519 36.731 41.0264 36.6921 40.9909 36.6638C40.9555 36.6355 40.9119 36.6192 40.8666 36.6175H38.9589C38.8701 36.6175 38.8171 36.6869 38.8417 36.7725L39.6923 39.7675C39.7169 39.8525 39.7183 39.9929 39.697 40.0793L39.319 41.5286C39.3125 41.5472 39.3108 41.5671 39.314 41.5865C39.3172 41.6059 39.3252 41.6242 39.3373 41.6398C39.3493 41.6553 39.3651 41.6676 39.3831 41.6755C39.4011 41.6834 39.4208 41.6867 39.4404 41.6851H41.3306C41.4194 41.6851 41.5102 41.6142 41.5319 41.5291L41.91 40.0798C41.9396 39.9778 41.9859 39.8813 42.047 39.7944L46.8698 33.3994C46.9232 33.3285 46.8944 33.2709 46.8055 33.2718L46.2999 33.2751L46.2942 33.2742ZM31.1368 37.0248C31.1255 37.1193 31.0366 37.1902 30.9478 37.1902H28.5284C28.4447 37.1902 28.4022 37.1335 28.415 37.0626L28.4168 37.0498L28.4277 37.0087C28.664 36.3944 29.1294 35.9913 30.0136 35.9913C31.0092 35.9913 31.2035 36.4781 31.1359 37.0248H31.1368ZM30.4271 34.233C27.3224 34.233 26.5867 36.1175 26.1741 38.0195C25.7611 39.9584 25.797 41.7715 29.0094 41.7715H29.5188L29.911 41.7701L31.9553 41.7578C32.0001 41.7557 32.0431 41.7392 32.0778 41.7107C32.1124 41.6821 32.1369 41.6431 32.1476 41.5995L32.4581 40.0817C32.476 39.9948 32.4179 39.9239 32.3291 39.9239H29.4409C28.2926 39.9239 27.9509 39.6186 28.0766 38.7212H32.6934C32.769 38.7198 32.8375 38.674 32.8645 38.6022C32.8692 38.5894 32.8739 38.5757 32.8758 38.562C33.561 35.9772 33.3644 34.2349 30.428 34.2349L30.4271 34.233ZM15.7526 37.0144L15.7091 37.1689L15.3604 38.4051L15.0116 39.6403C14.9971 39.6839 14.9698 39.722 14.9332 39.7497C14.8965 39.7774 14.8524 39.7933 14.8065 39.7953H12.9608C11.5611 39.7953 11.2204 38.7004 11.5611 37.0857C11.9013 35.4342 12.57 34.4074 13.9475 34.3034C15.8301 34.1616 16.2062 35.4857 15.7526 37.0139V37.0144ZM17.0181 39.7008C17.0181 39.7008 17.8876 37.5885 18.086 36.368C18.3554 34.7344 17.5379 32.3655 14.3789 32.3655C11.2379 32.3655 9.8741 34.6271 9.35382 37.0909C8.83402 39.5671 9.51543 41.7389 12.638 41.7219L17.4041 41.7044C17.4498 41.7022 17.4937 41.686 17.5299 41.6579C17.566 41.6298 17.5925 41.5913 17.6059 41.5475L18.0076 40.0174C18.0141 39.9989 18.0159 39.979 18.0127 39.9597C18.0096 39.9403 18.0017 39.922 17.9898 39.9064C17.9778 39.8908 17.9622 39.8785 17.9442 39.8705C17.9263 39.8625 17.9067 39.859 17.8871 39.8605L17.1182 39.8558C17.0426 39.8553 17.0001 39.8067 17.0086 39.7424C17.0105 39.7306 17.0133 39.7188 17.0181 39.7065V39.7008Z" fill="#131B28"/>
<path d="M32.5668 38.2874C32.5668 38.346 32.5195 38.3933 32.4609 38.3933C32.4023 38.3933 32.3551 38.346 32.3551 38.2874C32.3551 38.2288 32.4023 38.1816 32.4609 38.1816C32.5195 38.1816 32.5668 38.2288 32.5668 38.2874Z" fill="#131B28"/>
</svg>
