<svg width="35" height="33" viewBox="0 0 35 33" fill="none" xmlns="http://www.w3.org/2000/svg">
<g clip-path="url(#clip0_12_211)">
<path d="M17.5 19.8059C19.2229 19.8059 20.6196 18.3258 20.6196 16.5C20.6196 14.6742 19.2229 13.1941 17.5 13.1941C15.7771 13.1941 14.3804 14.6742 14.3804 16.5C14.3804 18.3258 15.7771 19.8059 17.5 19.8059Z" fill="#61DAFB"/>
<path d="M17.5 23.273C26.7448 23.273 34.2391 20.2406 34.2391 16.5C34.2391 12.7594 26.7448 9.72696 17.5 9.72696C8.25523 9.72696 0.760864 12.7594 0.760864 16.5C0.760864 20.2406 8.25523 23.273 17.5 23.273Z" stroke="#61DAFB"/>
<path d="M11.965 19.8865C16.5874 28.3709 22.8127 33.7327 25.8696 31.8624C28.9265 29.992 27.6574 21.5979 23.035 13.1135C18.4126 4.62909 12.1873 -0.732674 9.13043 1.13765C6.07352 3.00797 7.34258 11.4021 11.965 19.8865Z" stroke="#61DAFB"/>
<path d="M11.965 13.1135C7.34257 21.5979 6.07351 29.992 9.13042 31.8624C12.1873 33.7327 18.4126 28.3709 23.035 19.8865C27.6574 11.4021 28.9265 3.00797 25.8696 1.13765C22.8126 -0.732674 16.5873 4.62909 11.965 13.1135Z" stroke="#61DAFB"/>
</g>
<defs>
<clipPath id="clip0_12_211">
<rect width="35" height="33" fill="white"/>
</clipPath>
</defs>
</svg>
