<svg width="40" height="30" viewBox="0 0 40 30" fill="none" xmlns="http://www.w3.org/2000/svg">
<g clip-path="url(#clip0_17_35)">
<path d="M30.9496 10.2962C29.8106 9.88234 29.2223 10.0219 28.0276 9.87098C26.1807 9.63816 25.4449 8.80392 25.1327 6.65685C24.958 5.45828 25.1643 3.70339 24.7183 2.61691C23.8655 0.545287 21.8699 -0.383823 19.865 0.14648C18.1723 0.594865 16.7639 2.55009 16.6858 4.55705C16.5966 6.84856 17.7264 8.80377 19.6662 9.47853C20.5878 9.79972 21.567 9.96138 22.5295 10.0433C24.2947 10.192 24.4303 11.3261 24.9079 12.2595C25.2089 12.848 25.5006 13.4279 25.5006 15.1827C25.5006 16.9374 25.207 17.5173 24.9079 18.1058C24.4303 19.0371 23.8413 19.6471 22.0762 19.798C21.1137 19.8799 20.1326 20.0416 19.2129 20.3628C17.273 21.0397 16.1433 22.9927 16.2325 25.2842C16.3105 27.2912 17.7189 29.2465 19.4117 29.6948C21.4166 30.2273 23.4121 29.296 24.265 27.2244C24.7128 26.1379 24.958 24.907 25.1327 23.7085C25.4467 21.5613 26.1825 20.7271 28.0276 20.4943C29.2223 20.3434 30.4589 20.4943 31.5784 19.7592C32.7615 18.7601 33.8185 17.2607 33.8185 15.1827C33.8185 13.1045 32.6794 10.9257 30.9496 10.2962Z" fill="#F44250"/>
<path d="M11.9999 20.0527C9.6717 20.0527 7.7726 17.8538 7.7726 15.158C7.7726 12.4623 9.6717 10.2633 11.9999 10.2633C14.328 10.2633 16.2272 12.4623 16.2272 15.158C16.2272 17.8516 14.3262 20.0527 11.9999 20.0527Z" fill="#121212"/>
<path d="M4.21234 30C1.88792 29.9935 -0.00557183 27.7859 1.23196e-05 25.088C0.00562123 22.3944 1.91217 20.202 4.24219 20.2106C6.56847 20.2171 8.46196 22.4247 8.45451 25.1226C8.44889 27.814 6.54234 30.0065 4.21234 30Z" fill="#121212"/>
<path d="M35.6228 29.9999C33.291 30.015 31.3771 27.8312 31.3639 25.142C31.3509 22.442 33.2369 20.2258 35.5594 20.2106C37.8912 20.1956 39.8052 22.3793 39.8183 25.0686C39.8313 27.7664 37.9454 29.9847 35.6228 29.9999Z" fill="#121212"/>
</g>
<defs>
<clipPath id="clip0_17_35">
<rect width="40" height="30" fill="white"/>
</clipPath>
</defs>
</svg>
