<svg width="35" height="35" viewBox="0 0 35 35" fill="none" xmlns="http://www.w3.org/2000/svg">
<g clip-path="url(#clip0_12_217)">
<path d="M24.2513 24.026C25.5429 23.8923 26.5228 22.7789 26.4782 21.4426C26.4337 20.1064 25.3202 19.0374 23.984 19.0374H23.895C22.5142 19.082 21.4453 20.24 21.4899 21.6207C21.5344 22.2889 21.8016 22.8679 22.2024 23.2687C20.6881 26.253 18.3721 28.4355 14.8981 30.2616C12.5375 31.5088 10.0879 31.9542 7.63834 31.6425C5.63404 31.3752 4.07517 30.4845 3.09517 29.0145C1.67002 26.832 1.53644 24.4713 2.73902 22.1107C3.58531 20.4181 4.92133 19.171 5.76762 18.5474C5.58947 17.9684 5.32219 16.9885 5.18861 16.276C-1.26957 20.9527 -0.601427 27.2774 1.3583 30.2616C2.82803 32.4888 5.81219 33.8695 9.10806 33.8695C9.99879 33.8695 10.8895 33.7803 11.7804 33.5578C17.4814 32.4442 21.8017 29.059 24.2513 24.026ZM32.0902 18.503C28.7052 14.5388 23.7169 12.3564 18.0158 12.3564H17.3033C16.9024 11.5546 16.0561 11.0201 15.1208 11.0201H15.0317C13.6511 11.0646 12.5822 12.2227 12.6267 13.6035C12.6712 14.9397 13.7847 16.0087 15.1208 16.0087H15.2098C16.1897 15.9641 17.036 15.3405 17.3923 14.4942H18.194C21.579 14.4942 24.7857 15.4741 27.6809 17.3894C29.9078 18.8593 31.5112 20.7746 32.4019 23.0906C33.1591 24.9613 33.1145 26.7874 32.3128 28.3464C31.0658 30.707 28.9725 31.9988 26.211 31.9988C24.4295 31.9988 22.737 31.4642 21.8462 31.0633C21.3563 31.5088 20.4654 32.2213 19.8419 32.6669C21.7571 33.5576 23.7169 34.0476 25.5875 34.0476C29.8632 34.0476 33.0255 31.6869 34.2281 29.3263C35.5197 26.7429 35.4305 22.2888 32.0902 18.503ZM9.46435 24.783C9.50892 26.1193 10.6224 27.1882 11.9585 27.1882H12.0477C13.4284 27.1437 14.4972 25.9856 14.4527 24.6049C14.4082 23.2686 13.2947 22.1997 11.9585 22.1997H11.8695C11.7804 22.1997 11.6467 22.1997 11.5578 22.2441C9.73164 19.2154 8.97449 15.9195 9.24178 12.3562C9.41978 9.68379 10.3106 7.36764 11.8695 5.45234C13.1611 3.80434 15.6553 3.00262 17.3478 2.95818C22.0689 2.86904 24.073 8.74836 24.2067 11.1091C24.7857 11.2427 25.7656 11.5545 26.4337 11.7772C25.8992 4.56176 21.4453 0.820312 17.1697 0.820312C13.1611 0.820312 9.46435 3.71547 7.99449 7.99135C5.94576 13.6925 7.28191 19.171 9.77607 23.4914C9.55349 23.8031 9.41978 24.293 9.46435 24.783Z" fill="#764ABC"/>
</g>
<defs>
<clipPath id="clip0_12_217">
<rect width="35" height="35" fill="white"/>
</clipPath>
</defs>
</svg>
