<svg width="38" height="41" viewBox="0 0 38 41" fill="none" xmlns="http://www.w3.org/2000/svg">
<g clip-path="url(#clip0_12_203)">
<path d="M32.7003 23.5655C31.3753 23.5755 30.2238 24.0348 29.2596 24.7138C28.9058 23.7053 28.552 22.8066 28.4896 22.1476C28.4202 21.3787 28.337 20.9094 28.4202 19.9907C28.5035 19.0721 28.8781 17.764 28.8711 17.6641C28.8642 17.5643 28.7879 17.095 28.0248 17.085C27.2618 17.075 26.6028 17.2947 26.5265 17.5843C26.4502 17.8738 26.3045 18.5329 26.2074 19.2119C26.0756 20.2104 24.6813 23.7752 23.8835 25.6425C23.6269 24.9135 23.4049 24.2745 23.3563 23.7652C23.287 22.9963 23.2037 22.527 23.287 21.6084C23.3702 20.6897 23.7448 19.3816 23.7379 19.2818C23.7309 19.1819 23.6546 18.7126 22.8916 18.7026C22.1285 18.6926 21.4695 18.9123 21.3932 19.2019C21.3169 19.4915 21.2337 20.1705 21.0741 20.8295C20.9146 21.4885 19.0624 27.4398 18.5769 28.9776C18.3271 29.7664 18.1121 30.3955 17.9595 30.8249C17.9595 30.8249 17.9525 30.8548 17.9317 30.9048C17.7999 31.2742 17.7236 31.4739 17.7236 31.4739C17.7236 31.4739 17.7236 31.4739 17.7236 31.4839C17.6196 31.7535 17.5086 32.0032 17.4531 32.0032C17.4115 32.0032 17.3352 31.2842 17.467 30.3056C17.7444 28.2387 18.4034 25.0234 18.3965 24.9135C18.3965 24.8536 18.5214 24.2944 17.9664 24.0049C17.4253 23.7153 17.2311 24.1946 17.1826 24.1946C17.134 24.1946 17.0993 24.3643 17.0993 24.3643C17.0993 24.3643 17.7028 20.7496 15.9478 20.7496C14.8518 20.7496 13.3395 22.4771 12.5904 24.0348C12.1187 24.4043 11.1128 25.1931 10.0376 26.0419C9.62833 26.3714 9.20519 26.7009 8.80979 27.0105C8.78204 26.9705 8.75429 26.9206 8.72655 26.8807C6.60387 23.6154 2.67762 21.3088 2.84411 16.9252C2.90654 15.3276 3.28806 11.1337 10.3844 6.04115C16.2253 1.89722 20.8729 3.04554 21.6776 5.59181C22.8291 9.22649 19.1873 15.9766 13.1522 16.9552C10.8492 17.3246 9.64221 16.0465 9.33699 15.5672C9.01789 15.0679 8.96934 15.038 8.85141 15.1378C8.65718 15.2876 8.78204 15.737 8.85141 15.9966C9.03177 16.6756 9.77401 17.8738 11.0296 18.463C12.1395 18.9822 14.8379 19.2718 18.1052 17.4545C21.7609 15.4174 24.6188 9.75572 23.7795 5.01266C22.9401 0.199702 17.3907 -1.38797 12.1395 1.29809C9.01789 2.89576 5.63272 5.41207 3.19789 8.68728C0.305224 12.5816 -0.152607 15.9666 0.0346872 17.3846C0.707561 22.4172 5.52866 25.6924 7.4571 28.1188C7.35999 28.1987 7.26981 28.2686 7.1935 28.3285C6.22928 29.0175 2.55276 31.7835 1.6371 34.7092C0.596571 38.0243 1.80358 40.4009 2.60132 40.7204C5.07777 41.709 7.62359 39.9316 8.99015 36.9958C10.3567 34.0601 10.1902 30.2457 9.55897 28.4983C9.55203 28.4783 9.54509 28.4583 9.53122 28.4384C9.78094 28.2287 10.0376 28.009 10.2873 27.7993C10.7799 27.3799 11.2654 26.9905 11.6816 26.671C11.4458 27.5996 11.2724 28.708 11.1891 30.3056C11.0851 32.1829 11.6192 34.6193 12.3198 35.5779C12.632 35.9973 12.9996 36.0073 13.2355 36.0073C14.054 36.0073 14.4217 35.0287 14.831 33.8704C15.3304 32.4525 15.7813 30.8049 15.7813 30.8049C15.7813 30.8049 15.2194 35.2584 16.7455 35.2584C17.3005 35.2584 17.8624 34.2199 18.1121 33.6907C18.1121 33.7007 18.1121 33.7007 18.1121 33.7007C18.1121 33.7007 18.126 33.6707 18.1537 33.6008C18.2092 33.471 18.2439 33.3911 18.2439 33.3911C18.2439 33.3911 18.2439 33.3811 18.2439 33.3712C18.4659 32.812 18.9653 31.5438 19.7076 29.4369C20.6648 26.7209 21.5874 23.3259 21.5874 23.3259C21.5874 23.3259 21.6707 24.1546 21.9551 25.5326C22.1216 26.3414 22.4684 27.2301 22.7459 28.0889C22.5239 28.5382 22.3852 28.7879 22.3852 28.7879C22.3852 28.7879 22.3852 28.7879 22.3921 28.7978C22.2118 29.1374 22.0175 29.5068 21.8025 29.8663C21.0464 31.1644 20.1446 32.6522 20.0197 33.0816C19.874 33.5908 19.9087 33.9603 20.1862 34.2599C20.3874 34.4795 20.7481 34.5095 21.1157 34.4795C21.7955 34.4096 22.2742 34.17 22.51 34.0202C22.8777 33.8305 23.3078 33.5409 23.7101 33.1115C24.4524 32.3227 24.9033 31.1943 24.8616 29.7065C24.8408 28.8877 24.6535 28.0689 24.4246 27.3C24.494 27.1602 24.5564 27.0205 24.6258 26.8807C25.7981 24.4143 26.7068 21.7082 26.7068 21.7082C26.7068 21.7082 26.7901 22.537 27.0745 23.915C27.2132 24.614 27.4976 25.3729 27.7474 26.1118C26.6444 27.3999 25.9646 28.8977 25.7218 29.8763C25.2848 31.6936 25.6247 32.5124 26.2698 32.7021C26.5612 32.792 26.9774 32.5923 27.2826 32.4026C27.6711 32.2228 28.1289 31.9133 28.5659 31.454C29.3081 30.6651 30.0226 29.5667 29.981 28.0789C29.9602 27.3999 29.8353 26.7309 29.6619 26.0818C30.5984 25.5226 31.8054 25.2131 33.3454 25.4727C36.6473 26.0319 37.2994 28.9976 37.1745 30.2457C37.0497 31.4939 36.356 32.1729 36.1271 32.3826C35.8981 32.5923 35.8218 32.6622 35.8427 32.812C35.8704 33.0317 35.9814 33.0217 36.1756 32.9817C36.4462 32.9118 37.9098 31.9732 37.9723 29.6766C38.0763 26.7409 36.134 23.5356 32.7003 23.5655ZM7.22819 35.9274C6.13217 37.6449 4.60606 38.2939 3.94706 37.7448C3.23951 37.1556 3.51698 34.6193 4.86273 32.802C5.68127 31.6936 6.73567 30.6651 7.43629 30.036C7.59584 29.8962 7.83169 29.6965 8.1161 29.4469C8.16466 29.407 8.19241 29.387 8.19241 29.387C8.2479 29.3371 8.3034 29.2871 8.35889 29.2372C8.85141 31.8334 8.3797 34.1201 7.22819 35.9274ZM15.2056 28.1188C14.824 29.4569 14.0263 32.8819 13.5407 32.6921C13.1245 32.5324 12.8678 29.9362 13.4575 27.3699C13.7558 26.0818 14.387 24.5441 14.7547 23.945C15.3512 22.9864 16.0102 22.6668 16.1698 23.0563C16.3709 23.5655 15.4414 27.2801 15.2056 28.1188ZM21.7886 32.6522C21.6291 32.772 21.4765 32.8519 21.4071 32.792C21.3585 32.7521 21.4765 32.5923 21.4765 32.5923C21.4765 32.5923 22.3019 31.3142 22.628 30.735C22.8153 30.3955 23.0372 29.9961 23.2731 29.5468C23.2731 29.5867 23.2731 29.6366 23.2731 29.6766C23.2731 31.2043 22.2464 32.2328 21.7886 32.6522ZM26.8664 30.9846C26.7485 30.8648 26.7693 30.4654 27.1647 29.2172C27.3173 28.728 27.678 27.9091 28.2954 27.1203C28.3647 27.4398 28.4133 27.7494 28.4064 28.039C28.3994 29.9661 27.4421 30.6851 26.8664 30.9846Z" fill="#CD6799"/>
</g>
<defs>
<clipPath id="clip0_12_203">
<rect width="38" height="41" fill="white"/>
</clipPath>
</defs>
</svg>
