<svg width="50" height="45" viewBox="0 0 50 45" fill="none" xmlns="http://www.w3.org/2000/svg">
<g clip-path="url(#clip0_12_189)">
<mask id="mask0_12_189" style="mask-type:luminance" maskUnits="userSpaceOnUse" x="14" y="8" width="22" height="29">
<path d="M35.5556 8.5H14.4444V37H35.5556V8.5Z" fill="white"/>
</mask>
<g mask="url(#mask0_12_189)">
<path d="M25 22.75C25 21.4902 25.5561 20.2821 26.5458 19.3913C27.5356 18.5005 28.878 18 30.2778 18C31.6776 18 33.0199 18.5005 34.0097 19.3913C34.9995 20.2821 35.5556 21.4902 35.5556 22.75C35.5556 24.0098 34.9995 25.2179 34.0097 26.1087C33.0199 26.9995 31.6776 27.5 30.2778 27.5C28.878 27.5 27.5356 26.9995 26.5458 26.1087C25.5561 25.2179 25 24.0098 25 22.75Z" fill="#1ABCFE"/>
<path d="M14.4444 32.25C14.4444 30.9902 15.0005 29.7821 15.9903 28.8913C16.9801 28.0005 18.3224 27.5 19.7222 27.5H25V32.25C25 33.5098 24.4439 34.7179 23.4542 35.6087C22.4644 36.4995 21.122 37 19.7222 37C18.3224 37 16.9801 36.4995 15.9903 35.6087C15.0005 34.7179 14.4444 33.5098 14.4444 32.25Z" fill="#0ACF83"/>
<path d="M25 8.5V18H30.2778C31.6776 18 33.0199 17.4995 34.0097 16.6087C34.9995 15.7179 35.5556 14.5098 35.5556 13.25C35.5556 11.9902 34.9995 10.782 34.0097 9.89125C33.0199 9.00045 31.6776 8.5 30.2778 8.5H25Z" fill="#FF7262"/>
<path d="M14.4444 13.25C14.4444 14.5098 15.0005 15.7179 15.9903 16.6087C16.9801 17.4995 18.3224 18 19.7222 18H25V8.5H19.7222C18.3224 8.5 16.9801 9.00045 15.9903 9.89125C15.0005 10.782 14.4444 11.9902 14.4444 13.25Z" fill="#F24E1E"/>
<path d="M14.4444 22.75C14.4444 24.0098 15.0005 25.2179 15.9903 26.1087C16.9801 26.9995 18.3224 27.5 19.7222 27.5H25V18H19.7222C18.3224 18 16.9801 18.5005 15.9903 19.3913C15.0005 20.2821 14.4444 21.4902 14.4444 22.75Z" fill="#A259FF"/>
</g>
</g>
<defs>
<clipPath id="clip0_12_189">
<rect width="50" height="45" fill="white"/>
</clipPath>
</defs>
</svg>
