<svg width="35" height="33" viewBox="0 0 35 33" fill="none" xmlns="http://www.w3.org/2000/svg">
<g clip-path="url(#clip0_12_114)">
<mask id="mask0_12_114" style="mask-type:luminance" maskUnits="userSpaceOnUse" x="0" y="0" width="35" height="33">
<path d="M0 0.0405273H34.957V33H0V0.0405273Z" fill="white"/>
</mask>
<g mask="url(#mask0_12_114)">
<path d="M34.2985 15.0527L19.0354 0.662873C18.8264 0.465612 18.5781 0.309129 18.3048 0.202365C18.0316 0.0956014 17.7387 0.0406494 17.4429 0.0406494C17.1472 0.0406494 16.8543 0.0956014 16.581 0.202365C16.3078 0.309129 16.0595 0.465612 15.8504 0.662873L12.6822 3.65153L16.7019 7.4415C17.1744 7.29018 17.6825 7.26655 18.1686 7.3733C18.6547 7.48005 19.0994 7.71291 19.4524 8.04555C19.8074 8.38059 20.0552 8.80308 20.1675 9.26468C20.2798 9.72628 20.252 10.2084 20.0873 10.6558L23.9628 14.3087C24.4375 14.1533 24.949 14.1271 25.4387 14.2332C25.9284 14.3393 26.3765 14.5733 26.7316 14.9085C26.9804 15.143 27.1777 15.4214 27.3123 15.7278C27.447 16.0342 27.5163 16.3626 27.5163 16.6942C27.5163 17.0259 27.447 17.3543 27.3123 17.6607C27.1777 17.9671 26.9804 18.2455 26.7316 18.48C26.2287 18.9537 25.547 19.2197 24.8361 19.2197C24.1253 19.2197 23.4435 18.9537 22.9406 18.48C22.567 18.1272 22.3125 17.678 22.209 17.1891C22.1056 16.7002 22.1579 16.1934 22.3593 15.7324L18.7452 12.3259V21.2922C19.1266 21.4698 19.4577 21.7306 19.711 22.053C19.9643 22.3753 20.1325 22.7499 20.2016 23.1457C20.2708 23.5416 20.2389 23.9472 20.1087 24.3291C19.9785 24.711 19.7536 25.0582 19.4528 25.3419C19.2041 25.5764 18.9088 25.7624 18.5838 25.8894C18.2588 26.0163 17.9105 26.0816 17.5588 26.0816C17.207 26.0816 16.8587 26.0163 16.5337 25.8894C16.2088 25.7624 15.9135 25.5764 15.6648 25.3419C15.416 25.1074 15.2186 24.8289 15.0839 24.5225C14.9493 24.2161 14.88 23.8876 14.88 23.5559C14.88 23.2242 14.9493 22.8958 15.0839 22.5893C15.2186 22.2829 15.416 22.0045 15.6648 21.77C15.9154 21.5332 16.2133 21.3455 16.5413 21.2179V12.1691C16.2147 12.0423 15.9178 11.8558 15.6679 11.6205C15.4179 11.3851 15.2197 11.1055 15.0846 10.7978C14.9496 10.49 14.8804 10.1601 14.881 9.82702C14.8815 9.49395 14.9519 9.16427 15.088 8.85692L11.1247 5.11931L0.658154 14.9852C0.236388 15.3837 -0.000488281 15.9236 -0.000488281 16.4866C-0.000488281 17.0495 0.236388 17.5894 0.658154 17.9879L15.922 32.3795C16.3445 32.777 16.9171 33.0003 17.5141 33.0003C18.111 33.0003 18.6836 32.777 19.1062 32.3795L34.2985 18.0553C34.7202 17.6569 34.9571 17.1169 34.9571 16.554C34.9571 15.9911 34.7202 15.4511 34.2985 15.0527Z" fill="#F03C2E"/>
</g>
</g>
<defs>
<clipPath id="clip0_12_114">
<rect width="35" height="33" fill="white"/>
</clipPath>
</defs>
</svg>
