<svg width="35" height="33" viewBox="0 0 35 33" fill="none" xmlns="http://www.w3.org/2000/svg">
<g clip-path="url(#clip0_12_120)">
<path d="M34.8569 18.5951C36.0817 9.55475 29.3104 1.28974 19.7396 0.13495C10.1688 -1.01984 1.36791 5.36451 0.143128 14.3884C-1.08165 23.4123 5.68963 31.6938 15.2604 32.8651C24.8487 34.0198 33.6146 27.6355 34.8569 18.5951Z" fill="#FF6C37"/>
<path d="M23.8164 10.594L16.4327 17.5558L14.3506 15.5926C21.6118 8.74638 22.3291 9.34028 23.8164 10.594Z" fill="white"/>
<path d="M16.4327 17.7208C16.3802 17.7208 16.3452 17.7043 16.3102 17.6713L14.2106 15.7081C14.1406 15.6421 14.1406 15.5432 14.2106 15.4772C21.5943 8.51542 22.3641 9.1753 23.9213 10.4951C23.9563 10.5281 23.9738 10.5611 23.9738 10.6105C23.9738 10.66 23.9563 10.693 23.9213 10.726L16.5377 17.6713C16.5202 17.7043 16.4677 17.7208 16.4327 17.7208ZM14.5955 15.5926L16.4327 17.3248L23.5539 10.6105C22.2591 9.52174 21.3843 9.1918 14.5955 15.5926Z" fill="#FF6C37"/>
<path d="M18.5498 19.5519L16.5377 17.6548L23.9213 10.693C25.8985 12.5737 22.9415 15.6256 18.5498 19.5519Z" fill="white"/>
<path d="M18.5498 19.7169C18.4973 19.7169 18.4623 19.7004 18.4273 19.6674L16.4152 17.7703C16.3802 17.7373 16.3802 17.7043 16.3802 17.6548C16.3802 17.6053 16.3977 17.5723 16.4327 17.5393L23.8164 10.5776C23.8864 10.5116 23.9913 10.5116 24.0613 10.5776C24.5162 10.9735 24.7612 11.5344 24.7437 12.1118C24.7087 13.943 22.5041 16.269 18.6898 19.6674C18.6373 19.7004 18.5848 19.7169 18.5498 19.7169ZM16.7826 17.6548C17.9024 18.7271 18.3748 19.156 18.5498 19.321C21.4893 16.6815 24.3413 13.976 24.3588 12.1118C24.3763 11.6829 24.2013 11.2539 23.9038 10.924L16.7826 17.6548Z" fill="#FF6C37"/>
<path d="M14.3856 15.6422L15.8728 17.0444C15.9078 17.0774 15.9078 17.1104 15.8728 17.1434C15.8553 17.1599 15.8553 17.1599 15.8378 17.1599L12.7584 17.7868C12.6009 17.8033 12.4609 17.7043 12.4259 17.5558C12.4084 17.4733 12.4434 17.3908 12.4959 17.3414L14.2806 15.6587C14.3156 15.6257 14.3681 15.6092 14.3856 15.6422Z" fill="white"/>
<path d="M12.7059 17.9517C12.4434 17.9517 12.2509 17.7538 12.2509 17.5063C12.2509 17.3908 12.3034 17.2753 12.3909 17.1929L14.1756 15.5102C14.2806 15.4277 14.4206 15.4277 14.5255 15.5102L16.0128 16.9124C16.1177 16.9949 16.1177 17.1434 16.0128 17.2424C15.9778 17.2753 15.9428 17.2918 15.8903 17.3083L12.8108 17.9352C12.7759 17.9352 12.7409 17.9517 12.7059 17.9517ZM14.3331 15.8236L12.6184 17.4403C12.5834 17.4733 12.5659 17.5228 12.6009 17.5723C12.6184 17.6218 12.6709 17.6383 12.7234 17.6218L15.6103 17.0279L14.3331 15.8236Z" fill="#FF6C37"/>
<path d="M27.7182 6.73376C26.5984 5.71095 24.7962 5.74394 23.7114 6.81625C22.6266 7.88856 22.6616 9.57125 23.7989 10.5941C24.7262 11.4354 26.1259 11.5839 27.2282 10.957L25.2336 9.07634L27.7182 6.73376Z" fill="white"/>
<path d="M25.7585 11.5014C24.0963 11.5014 22.7491 10.2311 22.7491 8.6639C22.7491 7.09669 24.0963 5.82642 25.7585 5.82642C26.5284 5.82642 27.2807 6.10687 27.8406 6.61827C27.8756 6.65127 27.8931 6.68426 27.8931 6.73375C27.8931 6.78324 27.8756 6.81624 27.8406 6.84923L25.4786 9.07633L27.3332 10.825C27.4032 10.891 27.4032 10.99 27.3332 11.056C27.3157 11.0725 27.3157 11.0725 27.2982 11.089C26.8433 11.3529 26.3009 11.5014 25.7585 11.5014ZM25.7585 6.17285C24.2888 6.17285 23.099 7.29465 23.1165 8.6804C23.1165 10.0662 24.3063 11.1879 25.776 11.1715C26.1784 11.1715 26.5809 11.089 26.9483 10.9075L25.1111 9.19181C25.0761 9.15882 25.0586 9.12582 25.0586 9.07633C25.0586 9.02684 25.0761 8.99384 25.1111 8.96085L27.4557 6.75025C26.9833 6.37082 26.3884 6.17285 25.7585 6.17285Z" fill="#FF6C37"/>
<path d="M27.7706 6.78324L27.7357 6.75024L25.2336 9.07632L27.2108 10.9405C27.4032 10.825 27.5957 10.693 27.7532 10.5446C28.873 9.50525 28.873 7.82255 27.7706 6.78324Z" fill="white"/>
<path d="M27.2282 11.122C27.1758 11.122 27.1408 11.1055 27.1058 11.0725L25.1111 9.19181C25.0761 9.15882 25.0586 9.12583 25.0586 9.07633C25.0586 9.02684 25.0761 8.99385 25.1111 8.96086L27.5957 6.61828C27.6657 6.55229 27.7706 6.55229 27.8406 6.61828L27.8931 6.65127C29.0654 7.75657 29.0654 9.53825 27.9106 10.66C27.7357 10.825 27.5432 10.9735 27.3332 11.089C27.2807 11.1055 27.2457 11.122 27.2282 11.122ZM25.4786 9.07633L27.2457 10.7425C27.3857 10.66 27.5257 10.5446 27.6307 10.4456C28.628 9.50526 28.6805 7.97103 27.7182 6.98121L25.4786 9.07633Z" fill="#FF6C37"/>
<path d="M24.1138 10.891C23.6939 10.4951 23.0115 10.4951 22.5916 10.891L15.9953 17.1104L17.0976 18.1497L24.0788 12.3757C24.5337 12.0128 24.5687 11.3694 24.1838 10.9405C24.1488 10.924 24.1313 10.9075 24.1138 10.891Z" fill="white"/>
<path d="M17.0801 18.3147C17.0276 18.3147 16.9926 18.2982 16.9576 18.2652L15.8553 17.2259C15.7853 17.1599 15.7853 17.0609 15.8553 16.9949L22.4516 10.7755C22.9415 10.3136 23.7289 10.3136 24.2188 10.7755C24.7087 11.2374 24.7087 11.9798 24.2188 12.4417C24.2013 12.4582 24.1838 12.4747 24.1663 12.4912L17.1851 18.2652C17.1676 18.2982 17.1326 18.3147 17.0801 18.3147ZM16.2402 17.1104L17.0976 17.9187L23.9563 12.2437C24.3413 11.9468 24.3763 11.4024 24.0613 11.0395C23.7464 10.6765 23.169 10.6435 22.784 10.9405C22.7665 10.957 22.7491 10.9735 22.7141 10.99L16.2402 17.1104Z" fill="#FF6C37"/>
<path d="M10.9387 24.1876C10.8687 24.2206 10.8337 24.2866 10.8512 24.3526L11.1486 25.5404C11.2186 25.7053 11.1137 25.9033 10.9212 25.9528C10.7812 26.0023 10.6237 25.9528 10.5363 25.8538L8.6116 24.0556L14.893 18.1332L17.0626 18.1662L18.5323 19.552C18.1824 19.8324 16.0653 21.7626 10.9387 24.1876Z" fill="white"/>
<path d="M10.7987 26.1178C10.6587 26.1178 10.5188 26.0683 10.4313 25.9693L8.52412 24.1711C8.48912 24.1381 8.47163 24.1051 8.47163 24.0556C8.47163 24.0061 8.48912 23.9731 8.52412 23.9402L14.8055 18.0177C14.8405 17.9847 14.893 17.9682 14.928 17.9682L17.0976 18.0012C17.1501 18.0012 17.1851 18.0177 17.22 18.0507L18.6898 19.4365C18.7248 19.4695 18.7423 19.519 18.7423 19.5684C18.7423 19.6179 18.7248 19.6509 18.6723 19.6839L18.5498 19.7829C16.6951 21.3171 14.1756 22.8514 11.0437 24.3196L11.3411 25.4909C11.3936 25.7053 11.2886 25.9363 11.0787 26.0518C10.9737 26.1013 10.8862 26.1178 10.7987 26.1178ZM8.87405 24.0556L10.6762 25.7383C10.7287 25.8208 10.8337 25.8538 10.9212 25.8043C11.0087 25.7548 11.0437 25.6558 10.9912 25.5734L10.6937 24.3856C10.6587 24.2371 10.7287 24.1051 10.8687 24.0391C13.9656 22.5709 16.4677 21.0532 18.3049 19.5519L17.0101 18.3312L14.998 18.2982L8.87405 24.0556Z" fill="#FF6C37"/>
<path d="M7.12437 25.4744L8.6291 24.0556L10.8687 26.1673L7.29934 25.9363C7.14187 25.9198 7.03689 25.7878 7.05438 25.6393C7.05438 25.5734 7.07188 25.5074 7.12437 25.4744Z" fill="white"/>
<path d="M10.8687 26.3157L7.28184 26.0848C7.01938 26.0683 6.84442 25.8538 6.86191 25.6064C6.87941 25.5074 6.9144 25.4084 7.00189 25.3424L8.50662 23.9237C8.5766 23.8577 8.68159 23.8577 8.75157 23.9237L10.9912 26.0353C11.0437 26.0848 11.0612 26.1508 11.0262 26.2168C10.9912 26.2827 10.9387 26.3157 10.8687 26.3157ZM8.62909 24.2866L7.24684 25.5899C7.19435 25.6229 7.19435 25.7053 7.24684 25.7383C7.26434 25.7548 7.28184 25.7713 7.31683 25.7713L10.4138 25.9693L8.62909 24.2866Z" fill="#FF6C37"/>
<path d="M14.2806 18.8921C14.1756 18.8921 14.1056 18.8096 14.1056 18.7271C14.1056 18.6776 14.1231 18.6446 14.1581 18.6116L15.8553 17.0114C15.9253 16.9454 16.0303 16.9454 16.1003 17.0114L17.2026 18.0507C17.255 18.1002 17.2725 18.1497 17.255 18.2157C17.2375 18.2652 17.1851 18.3147 17.1151 18.3312L14.3156 18.8921C14.2981 18.8921 14.2806 18.8921 14.2806 18.8921ZM15.9778 17.3578L14.823 18.4466L16.7126 18.0672L15.9778 17.3578Z" fill="#FF6C37"/>
<path d="M17.0626 18.1662L15.1379 18.5621C14.9979 18.5951 14.858 18.5126 14.823 18.3806C14.8055 18.2982 14.823 18.2157 14.893 18.1497L15.9603 17.1434L17.0626 18.1662Z" fill="white"/>
<path d="M15.1029 18.7271C14.858 18.7271 14.6655 18.5456 14.6655 18.3147C14.6655 18.1992 14.718 18.1002 14.788 18.0177L15.8553 17.0114C15.9253 16.9454 16.0303 16.9454 16.1003 17.0114L17.2026 18.0507C17.255 18.1002 17.2725 18.1497 17.255 18.2157C17.2375 18.2652 17.1851 18.3147 17.1151 18.3312L15.1904 18.7271C15.1554 18.7271 15.1204 18.7271 15.1029 18.7271ZM15.9778 17.3578L15.0329 18.2487C14.998 18.2817 14.998 18.3147 15.0154 18.3477C15.0329 18.3807 15.0679 18.3972 15.1204 18.3972L16.7301 18.0672L15.9778 17.3578Z" fill="#FF6C37"/>
<path d="M27.7881 8.36696C27.7532 8.26798 27.6307 8.21849 27.5257 8.25148C27.4207 8.28448 27.3682 8.39996 27.4032 8.49894C27.4032 8.51543 27.4207 8.53193 27.4207 8.54843C27.5257 8.74639 27.4907 8.99385 27.3507 9.17532C27.2807 9.2578 27.2982 9.37328 27.3682 9.43927C27.4557 9.50526 27.5782 9.48876 27.6482 9.40627C27.9106 9.09283 27.9631 8.6969 27.7881 8.36696Z" fill="#FF6C37"/>
</g>
<defs>
<clipPath id="clip0_12_120">
<rect width="35" height="33" fill="white"/>
</clipPath>
</defs>
</svg>
