<svg width="35" height="33" viewBox="0 0 35 33" fill="none" xmlns="http://www.w3.org/2000/svg">
<path fill-rule="evenodd" clip-rule="evenodd" d="M30.6555 -0.00512695H4.38888C3.22782 -0.00512655 2.11432 0.429402 1.29333 1.20287C0.88615 1.58647 0.563304 2.04198 0.343279 2.54332C0.123254 3.04465 0.0103742 3.58196 0.0111043 4.12445V28.8705C0.0111043 29.9644 0.472333 31.0134 1.29333 31.7869C2.11432 32.5603 3.22782 32.9949 4.38888 32.9949H30.6555C31.8127 32.9893 32.9206 32.5524 33.7367 31.7795C34.5529 31.0066 35.0111 29.9608 35.0111 28.8705V4.12969C35.0111 3.03946 34.5529 1.99358 33.7367 1.22071C32.9206 0.447845 31.8127 0.0108751 30.6555 0.00534092V-0.00512695ZM15.2444 24.9922C15.2386 25.5133 15.0148 26.0111 14.6216 26.3776C14.2284 26.7441 13.6976 26.9497 13.1444 26.9497H6.67777C6.12272 26.9525 5.58907 26.7481 5.19348 26.3813C4.79789 26.0145 4.57252 25.5151 4.56666 24.9922V6.2756C4.56592 6.01447 4.62007 5.75578 4.72597 5.51445C4.83187 5.27313 4.98743 5.05394 5.18369 4.86954C5.37994 4.68513 5.613 4.53915 5.86943 4.44002C6.12587 4.34088 6.40059 4.29056 6.67777 4.29194H13.1444C13.7014 4.29194 14.2355 4.50038 14.6294 4.87141C15.0232 5.24244 15.2444 5.74566 15.2444 6.27037V24.9922ZM30.4833 16.7435C30.4833 17.2682 30.2621 17.7714 29.8682 18.1424C29.4744 18.5135 28.9403 18.7219 28.3833 18.7219H21.9C21.343 18.7219 20.8089 18.5135 20.4151 18.1424C20.0212 17.7714 19.8 17.2682 19.8 16.7435V6.2756C19.7993 6.01535 19.853 5.75752 19.9582 5.51688C20.0635 5.27624 20.218 5.05753 20.4131 4.87326C20.6082 4.68899 20.8399 4.54279 21.0951 4.44304C21.3502 4.34328 21.6237 4.29194 21.9 4.29194H28.3833C28.9403 4.29194 29.4744 4.50038 29.8682 4.87141C30.2621 5.24244 30.4833 5.74566 30.4833 6.27037V16.7435Z" fill="url(#paint0_linear_12_160)"/>
<defs>
<linearGradient id="paint0_linear_12_160" x1="17.5222" y1="33.0001" x2="17.5222" y2="0.000105143" gradientUnits="userSpaceOnUse">
<stop offset="0.18" stop-color="#0052CC"/>
<stop offset="1" stop-color="#2684FF"/>
</linearGradient>
</defs>
</svg>
