<svg width="35" height="33" viewBox="0 0 35 33" fill="none" xmlns="http://www.w3.org/2000/svg">
<g clip-path="url(#clip0_12_83)">
<path fill-rule="evenodd" clip-rule="evenodd" d="M17.4479 0C7.79964 0 0 7.5625 0 16.9183C0 24.397 4.9975 30.7275 11.9304 32.968C12.7971 33.1365 13.1146 32.604 13.1146 32.1561C13.1146 31.7639 13.0861 30.4195 13.0861 29.0187C8.2325 30.0272 7.22179 27.0019 7.22179 27.0019C6.44179 25.0412 5.28607 24.5372 5.28607 24.5372C3.6975 23.5008 5.40179 23.5008 5.40179 23.5008C7.16393 23.6129 8.08857 25.2374 8.08857 25.2374C9.64821 27.8142 12.1614 27.0861 13.1725 26.6379C13.3168 25.5454 13.7793 24.7892 14.2704 24.3691C10.3993 23.9769 6.32643 22.5204 6.32643 16.0218C6.32643 14.1732 7.01929 12.6607 8.11714 11.4843C7.94393 11.0643 7.33714 9.32731 8.29071 7.00253C8.29071 7.00253 9.76393 6.55428 13.0857 8.73916C14.5079 8.36882 15.9746 8.18043 17.4479 8.17884C18.9211 8.17884 20.4229 8.37513 21.8096 8.73916C25.1318 6.55428 26.605 7.00253 26.605 7.00253C27.5586 9.32731 26.9514 11.0643 26.7782 11.4843C27.905 12.6607 28.5693 14.1732 28.5693 16.0218C28.5693 22.5204 24.4964 23.9487 20.5964 24.3691C21.2321 24.9012 21.7807 25.9095 21.7807 27.5062C21.7807 29.7749 21.7521 31.5958 21.7521 32.1557C21.7521 32.604 22.07 33.1365 22.9364 32.9684C29.8693 30.7271 34.8668 24.397 34.8668 16.9183C34.8954 7.5625 27.0671 0 17.4479 0Z" fill="#761E78"/>
</g>
<defs>
<clipPath id="clip0_12_83">
<rect width="35" height="33" fill="white"/>
</clipPath>
</defs>
</svg>
