<svg width="47" height="44" viewBox="0 0 47 44" fill="none" xmlns="http://www.w3.org/2000/svg">
<path fill-rule="evenodd" clip-rule="evenodd" d="M22.6606 1.88123C29.6517 1.88123 35.3168 8.61113 35.3168 16.9074C35.3168 25.2076 29.6484 31.9336 22.6606 31.9336C19.0871 31.9336 15.8617 30.1744 13.5579 27.3486H17.5656C17.8639 27.3486 18.149 27.2974 18.4142 27.1991C19.6937 27.9468 21.1357 28.364 22.6606 28.364C27.9909 28.364 32.3102 23.232 32.3102 16.9074C32.3102 10.5789 27.9909 5.45083 22.6606 5.45083C21.1026 5.45083 19.6308 5.89162 18.3247 6.67087C18.0098 6.52919 17.6617 6.45048 17.2971 6.45048H13.5745C15.875 3.62864 19.0971 1.88123 22.6606 1.88123Z" fill="#B5DDFC"/>
<path d="M8.74136 13.8101H5.04857V12.6491C5.04857 12.106 4.99885 11.7596 4.90603 11.6101C4.81322 11.4605 4.65742 11.3897 4.43863 11.3897C4.19996 11.3897 4.02096 11.4881 3.89831 11.6927C3.77566 11.8895 3.71599 12.1925 3.71599 12.5979C3.71599 13.1214 3.7856 13.5149 3.92483 13.7786C4.06074 14.0384 4.43532 14.3611 5.04857 14.7389C6.81209 15.8212 7.92258 16.7106 8.38004 17.3994C8.8408 18.092 9.06953 19.2058 9.06953 20.7407C9.06953 21.8584 8.94025 22.681 8.685 23.2123C8.42976 23.7436 7.93916 24.1844 7.20988 24.5425C6.4806 24.9046 5.63531 25.0817 4.66405 25.0817C3.59997 25.0817 2.695 24.8731 1.93921 24.4599C1.18673 24.0466 0.699441 23.5232 0.464084 22.8817C0.232042 22.2402 0.116021 21.3311 0.116021 20.1582V19.1271H3.80881V21.0359C3.80881 21.6223 3.86184 22.004 3.96461 22.1693C4.06737 22.3386 4.253 22.4212 4.51488 22.4212C4.78007 22.4212 4.97565 22.315 5.10493 22.1024C5.23421 21.8899 5.29719 21.5751 5.29719 21.1579C5.29719 20.2369 5.17454 19.6309 4.92924 19.3475C4.67399 19.0641 4.05742 18.5879 3.06959 17.9189C2.08175 17.2459 1.43203 16.7579 1.11049 16.4548C0.792258 16.1518 0.523752 15.7307 0.314914 15.1954C0.106076 14.6562 0 13.9714 0 13.1371C0 11.9367 0.14917 11.0552 0.44751 10.5002C0.74585 9.94531 1.22651 9.51239 1.89612 9.19754C2.56241 8.88269 3.36461 8.7292 4.30935 8.7292C5.34028 8.7292 6.21873 8.90237 6.94469 9.24083C7.67065 9.58323 8.15131 10.0161 8.38666 10.5357C8.62202 11.0552 8.74136 11.9367 8.74136 13.1843V13.8101ZM22.6473 0C26.5821 0 30.1423 1.89303 32.7213 4.95494C35.2969 8.01292 36.8914 12.2437 36.8914 16.9153C36.8914 20.3314 36.0395 23.5114 34.5676 26.1719L40.7333 34.1494L36.4836 38.7619L30.5401 30.9969C28.2826 32.7837 25.5677 33.8306 22.6506 33.8306C18.7159 33.8306 15.1557 31.9375 12.5767 28.8756C12.1723 28.3955 11.7911 27.8839 11.4364 27.3486H13.538C13.591 27.4116 13.6441 27.4785 13.6971 27.5415C15.9877 30.261 19.1534 31.9415 22.6473 31.9415C26.1412 31.9415 29.3069 30.261 31.5975 27.5415C33.8881 24.8219 35.3035 21.0634 35.3035 16.9153C35.3035 12.7671 33.8914 9.00863 31.6008 6.28912C29.3102 3.56961 26.1445 1.8891 22.6506 1.8891C19.1567 1.8891 15.991 3.56961 13.7004 6.28912C13.6573 6.34028 13.6109 6.39538 13.5678 6.44654H11.4563C11.8043 5.92311 12.1756 5.42328 12.5734 4.95494C15.1523 1.89303 18.7125 0 22.6473 0ZM10.485 9.04799H17.2971V12.1807H14.4695V15.1757H17.1214V18.1511H14.4695V21.6026H17.5656V24.7354H10.485V9.04799ZM28.1003 18.2455C28.1003 19.8237 28.0638 20.9375 27.9909 21.5908C27.9213 22.2481 27.6959 22.8463 27.3147 23.3894C26.9335 23.9325 26.4197 24.3497 25.7699 24.6409C25.1202 24.9321 24.3677 25.0778 23.5059 25.0778C22.6871 25.0778 21.9545 24.94 21.3048 24.6645C20.6551 24.389 20.128 23.9797 19.7335 23.4327C19.3357 22.8856 19.1004 22.2835 19.0241 21.642C18.9512 20.9926 18.9114 19.8631 18.9114 18.2495V15.5654C18.9114 13.9872 18.9479 12.8734 19.0208 12.2201C19.0904 11.5628 19.3192 10.9646 19.6971 10.4215C20.075 9.8784 20.5921 9.46123 21.2418 9.16999C21.8915 8.87875 22.644 8.73314 23.5059 8.73314C24.3246 8.73314 25.0572 8.87088 25.707 9.14638C26.3567 9.42187 26.8837 9.83118 27.2782 10.3782C27.676 10.9292 27.9114 11.5274 27.9876 12.1689C28.0605 12.8183 28.1003 13.9478 28.1003 15.5614V18.2455ZM24.1158 13.0938C24.1158 12.3657 24.076 11.9013 23.9998 11.6967C23.9235 11.4959 23.7644 11.3936 23.5258 11.3936C23.3235 11.3936 23.1677 11.4763 23.0584 11.6416C22.9523 11.8029 22.8959 12.2909 22.8959 13.0977V20.4219C22.8959 21.3311 22.9324 21.8938 23.002 22.1064C23.0716 22.3228 23.2374 22.4252 23.4959 22.4252C23.7611 22.4252 23.9302 22.3031 24.0064 22.0591C24.0827 21.8151 24.1158 21.2287 24.1158 20.3078V13.0938Z" fill="#2A77A6"/>
</svg>
