<svg width="36" height="34" viewBox="0 0 36 34" fill="none" xmlns="http://www.w3.org/2000/svg">
<path d="M8.25416 21.209C8.25416 23.117 6.60107 24.6756 4.57745 24.6756C2.55384 24.6756 0.900742 23.117 0.900742 21.209C0.900742 19.301 2.55384 17.7424 4.57745 17.7424H8.25416V21.209Z" fill="#E01E5A"/>
<path d="M10.1068 21.209C10.1068 19.301 11.7599 17.7424 13.7835 17.7424C15.8071 17.7424 17.4602 19.301 17.4602 21.209V29.8889C17.4602 31.7969 15.8071 33.3556 13.7835 33.3556C11.7599 33.3556 10.1068 31.7969 10.1068 29.8889V21.209Z" fill="#E01E5A"/>
<path d="M13.7835 7.28879C11.7599 7.28879 10.1068 5.73015 10.1068 3.82217C10.1068 1.91419 11.7599 0.35556 13.7835 0.35556C15.8071 0.35556 17.4602 1.91419 17.4602 3.82217V7.28879H13.7835Z" fill="#36C5F0"/>
<path d="M13.7835 9.03552C15.8071 9.03552 17.4602 10.5942 17.4602 12.5021C17.4602 14.4101 15.8071 15.9687 13.7835 15.9687H4.57745C2.55384 15.9687 0.900742 14.4101 0.900742 12.5021C0.900742 10.5942 2.55384 9.03552 4.57745 9.03552H13.7835Z" fill="#36C5F0"/>
<path d="M28.5473 12.5021C28.5473 10.5942 30.2004 9.03552 32.224 9.03552C34.2476 9.03552 35.9007 10.5942 35.9007 12.5021C35.9007 14.4101 34.2476 15.9687 32.224 15.9687H28.5473V12.5021Z" fill="#2EB67D"/>
<path d="M26.6947 12.5021C26.6947 14.4101 25.0416 15.9688 23.018 15.9688C20.9944 15.9688 19.3413 14.4101 19.3413 12.5021V3.82217C19.3413 1.91419 20.9944 0.35556 23.018 0.35556C25.0416 0.35556 26.6947 1.91419 26.6947 3.82217V12.5021Z" fill="#2EB67D"/>
<path d="M23.018 26.4223C25.0416 26.4223 26.6947 27.981 26.6947 29.8889C26.6947 31.7969 25.0416 33.3556 23.018 33.3556C20.9944 33.3556 19.3413 31.7969 19.3413 29.8889V26.4223H23.018Z" fill="#ECB22E"/>
<path d="M23.018 24.6756C20.9944 24.6756 19.3413 23.117 19.3413 21.209C19.3413 19.301 20.9944 17.7424 23.018 17.7424H32.224C34.2476 17.7424 35.9007 19.301 35.9007 21.209C35.9007 23.117 34.2476 24.6756 32.224 24.6756H23.018Z" fill="#ECB22E"/>
</svg>
