<svg width="46" height="43" viewBox="0 0 46 43" fill="none" xmlns="http://www.w3.org/2000/svg">
<path d="M43.125 21.5C43.1247 25.8524 41.5099 30.07 38.5559 33.4342C35.602 36.7984 31.4915 39.1011 26.9249 39.9499C22.3583 40.7987 17.6181 40.1412 13.512 38.0892C9.40591 36.0373 6.18796 32.718 4.40645 28.6968C2.62494 24.6757 2.39009 20.2015 3.74192 16.0366C5.09375 11.8717 7.94861 8.27388 11.8201 5.85605C15.6916 3.43821 20.3401 2.35 24.9737 2.77684C29.6072 3.20368 33.9391 5.11915 37.2312 8.19689C39.1028 9.94198 40.5869 12.0156 41.5984 14.2986C42.6098 16.5816 43.1286 19.029 43.125 21.5Z" fill="white"/>
<path d="M40.1062 21.5C40.106 25.1995 38.7334 28.7845 36.2226 31.6441C33.7117 34.5037 30.2178 36.4609 26.3361 37.1824C22.4545 37.9039 18.4254 37.345 14.9352 35.6008C11.445 33.8567 8.70977 31.0353 7.19548 27.6173C5.6812 24.1993 5.48158 20.3963 6.63063 16.8561C7.77969 13.316 10.2063 10.2578 13.4971 8.20264C16.7878 6.14748 20.7391 5.22251 24.6776 5.58532C28.6161 5.94813 32.2983 7.57628 35.0966 10.1924C36.6873 11.6757 37.9489 13.4383 38.8086 15.3788C39.6683 17.3194 40.1093 19.3996 40.1062 21.5Z" fill="#6D9A00"/>
<path d="M16.7613 21.4772C16.7535 21.3029 16.7846 21.129 16.8524 20.9665C16.9203 20.8041 17.0235 20.6565 17.1555 20.5332C17.2875 20.41 17.4455 20.3136 17.6193 20.2504C17.7932 20.1871 17.9793 20.1583 18.1657 20.1657C18.4431 20.1659 18.7142 20.2431 18.9448 20.3873C19.1753 20.5316 19.3549 20.7365 19.4609 20.9762C19.5668 21.2159 19.5944 21.4795 19.5401 21.7338C19.4858 21.9882 19.3521 22.2217 19.1558 22.405C18.9595 22.5883 18.7095 22.7131 18.4374 22.7636C18.1653 22.814 17.8833 22.788 17.627 22.6887C17.3707 22.5894 17.1517 22.4213 16.9976 22.2056C16.8435 21.99 16.7613 21.7365 16.7613 21.4772Z" fill="white"/>
<path d="M21.6071 21.4772C21.5993 21.3029 21.6304 21.129 21.6982 20.9665C21.7661 20.8041 21.8693 20.6565 22.0013 20.5332C22.1333 20.41 22.2913 20.3136 22.4652 20.2504C22.639 20.1871 22.8251 20.1583 23.0115 20.1657C23.2889 20.1659 23.56 20.2431 23.7906 20.3873C24.0211 20.5316 24.2007 20.7365 24.3067 20.9762C24.4126 21.2159 24.4402 21.4795 24.3859 21.7338C24.3316 21.9882 24.1979 22.2217 24.0016 22.405C23.8054 22.5883 23.5554 22.7131 23.2832 22.7636C23.0111 22.814 22.7291 22.788 22.4728 22.6887C22.2165 22.5894 21.9975 22.4213 21.8434 22.2056C21.6893 21.99 21.6071 21.7365 21.6071 21.4772Z" fill="white"/>
<path d="M26.45 21.4772C26.4423 21.3029 26.4733 21.129 26.5412 20.9665C26.609 20.8041 26.7122 20.6565 26.8443 20.5332C26.9763 20.41 27.1342 20.3136 27.3081 20.2504C27.482 20.1871 27.668 20.1583 27.8544 20.1657C28.1319 20.1659 28.403 20.2431 28.6335 20.3873C28.864 20.5316 29.0436 20.7365 29.1496 20.9762C29.2556 21.2159 29.2832 21.4795 29.2289 21.7338C29.1746 21.9882 29.0408 22.2217 28.8446 22.405C28.6483 22.5883 28.3983 22.7131 28.1262 22.7636C27.8541 22.814 27.572 22.788 27.3158 22.6887C27.0595 22.5894 26.8404 22.4213 26.6863 22.2056C26.5322 21.99 26.45 21.7365 26.45 21.4772Z" fill="white"/>
<path d="M10.9523 22.6959V20.3471C11.3826 20.3466 11.8101 20.2822 12.2188 20.1562C12.4845 20.018 12.7032 19.8127 12.8498 19.5636C13.0433 19.2417 13.1674 18.8875 13.2149 18.5209C13.2804 17.9785 13.3068 17.4326 13.294 16.8869C13.2643 16.0013 13.3235 15.115 13.4708 14.2397C13.5609 13.789 13.7828 13.3704 14.1119 13.0303C14.4149 12.6827 14.8194 12.425 15.2763 12.2886C15.8952 12.1484 16.5318 12.0891 17.1681 12.1126H17.6899V14.0435C17.2178 14.016 16.744 14.0573 16.2854 14.1658C16.0913 14.2368 15.9293 14.3683 15.8269 14.538C15.7156 14.9511 15.6672 15.3768 15.6831 15.8025C15.6831 16.2137 15.6534 16.9935 15.594 18.142C15.5807 18.6736 15.4948 19.2015 15.3381 19.7128C15.224 20.0695 15.0456 20.4053 14.8106 20.7058C14.5304 21.0205 14.1997 21.2924 13.8302 21.5121C14.1953 21.7152 14.5178 21.9789 14.7818 22.2901C15.0415 22.6118 15.2336 22.9766 15.3482 23.3651C15.5004 23.9221 15.5862 24.4931 15.6041 25.0676C15.6501 26.1507 15.6731 26.8423 15.6731 27.1424C15.656 27.565 15.7093 27.9875 15.8312 28.3948C15.9416 28.5689 16.1096 28.7048 16.3099 28.7818C16.7601 28.8981 17.228 28.9435 17.6942 28.9161V30.913H17.1724C16.5421 30.9267 15.9139 30.8394 15.3151 30.655C14.8581 30.5267 14.4448 30.2891 14.1163 29.9656C13.7837 29.626 13.5569 29.2078 13.4608 28.7562C13.3264 28.0079 13.2701 27.2492 13.2926 26.4907C13.3267 25.7078 13.2737 24.9238 13.1344 24.1512C13.0466 23.7228 12.8174 23.3309 12.4789 23.0305C12.0103 22.7956 11.4838 22.6802 10.9523 22.6959Z" fill="white"/>
<path d="M33.4722 23.0359C33.1338 23.3362 32.9045 23.7282 32.8167 24.1566C32.6774 24.9292 32.6244 25.7132 32.6586 26.4961C32.6797 27.2528 32.6225 28.0098 32.4875 28.7562C32.3913 29.2078 32.1646 29.626 31.832 29.9656C31.5052 30.2928 31.0923 30.5342 30.6346 30.6657C30.0358 30.8501 29.4076 30.9374 28.7773 30.9237H28.2555V28.9309C28.7217 28.9583 29.1896 28.9129 29.6398 28.7966C29.8401 28.7195 30.0081 28.5837 30.1185 28.4096C30.2404 28.0023 30.2937 27.5798 30.2766 27.1572C30.2766 26.8571 30.2996 26.1655 30.3456 25.0824C30.3645 24.5082 30.4513 23.9377 30.6044 23.3812C30.7189 22.9927 30.9111 22.628 31.1708 22.3062C31.4347 21.995 31.7572 21.7313 32.1224 21.5282C31.7529 21.3086 31.4221 21.0366 31.142 20.722C30.907 20.4214 30.7286 20.0856 30.6144 19.7289C30.4578 19.2177 30.3718 18.6898 30.3586 18.1581C30.2991 17.0096 30.2694 16.2298 30.2694 15.8186C30.2853 15.3929 30.237 14.9672 30.1257 14.5541C30.0232 14.3844 29.8613 14.253 29.6671 14.1819C29.2086 14.0734 28.7348 14.0322 28.2627 14.0596V12.1152H28.7845C29.4208 12.0918 30.0574 12.1511 30.6763 12.2913C31.1331 12.4277 31.5377 12.6854 31.8406 13.033C32.1697 13.373 32.3917 13.7916 32.4818 14.2424C32.6291 15.1177 32.6883 16.004 32.6586 16.8896C32.6458 17.4353 32.6722 17.9812 32.7376 18.5236C32.7852 18.8901 32.9092 19.2444 33.1028 19.5663C33.2494 19.8154 33.4681 20.0207 33.7338 20.1589C34.1432 20.2861 34.5717 20.3514 35.0031 20.3524V22.6959C34.4697 22.6811 33.9415 22.7984 33.4722 23.0359Z" fill="white"/>
</svg>
