<svg width="35" height="33" viewBox="0 0 35 33" fill="none" xmlns="http://www.w3.org/2000/svg">
<g clip-path="url(#clip0_12_93)">
<mask id="mask0_12_93" style="mask-type:alpha" maskUnits="userSpaceOnUse" x="0" y="0" width="35" height="33">
<path fill-rule="evenodd" clip-rule="evenodd" d="M24.8192 32.7746C25.3704 32.9771 25.999 32.9642 26.5554 32.7117L33.7613 29.4425C34.5185 29.099 35 28.3764 35 27.5838V5.41639C35 4.62373 34.5185 3.90119 33.7613 3.55766L26.5554 0.288339C25.8252 -0.0429428 24.9706 0.0382006 24.3297 0.477493C24.2382 0.540246 24.151 0.610312 24.0691 0.687525L10.2743 12.5537L4.26552 8.25317C3.70615 7.85285 2.92377 7.88565 2.40427 8.33121L0.477061 9.98412C-0.158393 10.5291 -0.159121 11.4717 0.475486 12.0176L5.68649 16.5L0.475486 20.9825C-0.159121 21.5283 -0.158393 22.471 0.477061 23.0159L2.40427 24.6689C2.92377 25.1144 3.70615 25.1472 4.26552 24.7469L10.2743 20.4464L24.0691 32.3125C24.2874 32.5184 24.5436 32.6734 24.8192 32.7746ZM26.2553 9.00864L15.7882 16.5L26.2553 23.9914V9.00864Z" fill="white"/>
</mask>
<g mask="url(#mask0_12_93)">
<path d="M33.7615 3.56275L26.5499 0.288932C25.7152 -0.0900123 24.7176 0.0698344 24.0625 0.687502L0.454502 20.9825C-0.180494 21.5283 -0.179764 22.4709 0.456077 23.0159L2.38445 24.6688C2.90427 25.1144 3.68714 25.1472 4.24683 24.7469L32.6763 4.41207C33.6301 3.72986 35 4.37125 35 5.50001V5.42108C35 4.62875 34.5186 3.90648 33.7615 3.56275Z" fill="#0065A9"/>
<g filter="url(#filter0_d_12_93)">
<path d="M33.7615 29.4373L26.5499 32.7111C25.7152 33.0901 24.7176 32.9302 24.0625 32.3125L0.454502 12.0176C-0.180494 11.4717 -0.179764 10.5291 0.456077 9.98408L2.38445 8.33118C2.90427 7.88561 3.68714 7.85281 4.24683 8.25313L32.6763 28.5879C33.6301 29.2701 35 28.6288 35 27.5V27.579C35 28.3713 34.5186 29.0935 33.7615 29.4373Z" fill="#007ACC"/>
</g>
<g filter="url(#filter1_d_12_93)">
<path d="M26.5502 32.7116C25.7152 33.0903 24.7177 32.9301 24.0625 32.3124C24.8697 33.0735 26.25 32.5345 26.25 31.4581V1.54172C26.25 0.465347 24.8697 -0.0737066 24.0625 0.687404C24.7177 0.069681 25.7152 -0.0903914 26.5502 0.288217L33.7605 3.55755C34.5182 3.90108 35 4.62361 35 5.41627V27.5837C35 28.3763 34.5182 29.0989 33.7605 29.4424L26.5502 32.7116Z" fill="#1F9CF0"/>
</g>
<g style="mix-blend-mode:overlay" opacity="0.25">
<path fill-rule="evenodd" clip-rule="evenodd" d="M24.7979 32.7746C25.3491 32.9771 25.9777 32.9641 26.5341 32.7117L33.74 29.4425C34.4972 29.0989 34.9787 28.3764 34.9787 27.5837V5.41635C34.9787 4.62365 34.4972 3.90112 33.74 3.55759L26.5341 0.288278C25.8039 -0.0430036 24.9493 0.0381398 24.3084 0.477429C24.2169 0.540186 24.1297 0.610251 24.0479 0.687465L10.253 12.5536L4.24424 8.25313C3.6849 7.85277 2.9025 7.88561 2.38299 8.33114L0.455787 9.98404C-0.179668 10.5291 -0.180396 11.4717 0.454212 12.0175L5.6652 16.5L0.454212 20.9824C-0.180396 21.5283 -0.179668 22.4709 0.455787 23.0159L2.38299 24.6688C2.9025 25.1143 3.6849 25.1471 4.24424 24.7468L10.253 20.4463L24.0479 32.3125C24.2661 32.5183 24.5223 32.6734 24.7979 32.7746ZM26.234 9.0086L15.7669 16.5L26.234 23.9914V9.0086Z" fill="url(#paint0_linear_12_93)"/>
</g>
</g>
</g>
<defs>
<filter id="filter0_d_12_93" x="-8.35461" y="-0.359753" width="51.688" height="41.6078" filterUnits="userSpaceOnUse" color-interpolation-filters="sRGB">
<feFlood flood-opacity="0" result="BackgroundImageFix"/>
<feColorMatrix in="SourceAlpha" type="matrix" values="0 0 0 0 0 0 0 0 0 0 0 0 0 0 0 0 0 0 127 0" result="hardAlpha"/>
<feOffset/>
<feGaussianBlur stdDeviation="4.16667"/>
<feColorMatrix type="matrix" values="0 0 0 0 0 0 0 0 0 0 0 0 0 0 0 0 0 0 0.25 0"/>
<feBlend mode="overlay" in2="BackgroundImageFix" result="effect1_dropShadow_12_93"/>
<feBlend mode="normal" in="SourceGraphic" in2="effect1_dropShadow_12_93" result="shape"/>
</filter>
<filter id="filter1_d_12_93" x="15.7292" y="-8.24836" width="27.6042" height="49.4966" filterUnits="userSpaceOnUse" color-interpolation-filters="sRGB">
<feFlood flood-opacity="0" result="BackgroundImageFix"/>
<feColorMatrix in="SourceAlpha" type="matrix" values="0 0 0 0 0 0 0 0 0 0 0 0 0 0 0 0 0 0 127 0" result="hardAlpha"/>
<feOffset/>
<feGaussianBlur stdDeviation="4.16667"/>
<feColorMatrix type="matrix" values="0 0 0 0 0 0 0 0 0 0 0 0 0 0 0 0 0 0 0.25 0"/>
<feBlend mode="overlay" in2="BackgroundImageFix" result="effect1_dropShadow_12_93"/>
<feBlend mode="normal" in="SourceGraphic" in2="effect1_dropShadow_12_93" result="shape"/>
</filter>
<linearGradient id="paint0_linear_12_93" x1="17.4787" y1="0.085037" x2="17.4787" y2="32.9149" gradientUnits="userSpaceOnUse">
<stop stop-color="white"/>
<stop offset="1" stop-color="white" stop-opacity="0"/>
</linearGradient>
<clipPath id="clip0_12_93">
<rect width="35" height="33" fill="white"/>
</clipPath>
</defs>
</svg>
